<svg width="32" height="31" viewBox="0 0 32 31" fill="none" xmlns="http://www.w3.org/2000/svg">
<path d="M12.5354 28.3455H20.266C26.7082 28.3455 29.285 25.7687 29.285 19.3265V11.5959C29.285 5.15374 26.7082 2.57687 20.266 2.57687H12.5354C6.09322 2.57687 3.51636 5.15374 3.51636 11.5959V19.3265C3.51636 25.7687 6.09322 28.3455 12.5354 28.3455Z" stroke="#6100A2" stroke-width="1.5" stroke-linecap="round" stroke-linejoin="round"/>
<path d="M3.51636 16.3631L11.247 16.3373C12.2133 16.3373 13.2956 17.0717 13.6563 17.9736L15.1251 21.6843C15.4601 22.5218 15.9884 22.5218 16.3234 21.6843L19.2739 14.1985C19.5574 13.477 20.0856 13.4512 20.4464 14.1341L21.7863 16.6723C22.1858 17.4325 23.2165 18.0509 24.0669 18.0509H29.2979" stroke="#6100A2" stroke-width="1.5" stroke-linecap="round" stroke-linejoin="round"/>
</svg>
