<svg width="32" height="32" viewBox="0 0 32 32" fill="none" xmlns="http://www.w3.org/2000/svg">
<path d="M26.7982 8.94965L19.3768 3.75726C17.354 2.33998 14.2489 2.41729 12.3033 3.92476L5.84829 8.96253C4.55985 9.96751 3.54199 12.029 3.54199 13.6524V22.5426C3.54199 25.8281 6.20905 28.5081 9.49455 28.5081H23.3839C26.6694 28.5081 29.3364 25.841 29.3364 22.5555V13.8199C29.3364 12.0805 28.2155 9.94174 26.7982 8.94965ZM17.4055 23.3543C17.4055 23.8826 16.9675 24.3207 16.4392 24.3207C15.911 24.3207 15.4729 23.8826 15.4729 23.3543V19.489C15.4729 18.9608 15.911 18.5227 16.4392 18.5227C16.9675 18.5227 17.4055 18.9608 17.4055 19.489V23.3543Z" fill="#6C6A6E"/>
</svg>
