<svg width="15" height="15" viewBox="0 0 15 15" fill="none" xmlns="http://www.w3.org/2000/svg">
<path fill-rule="evenodd" clip-rule="evenodd" d="M13.4094 3.38501C13.4688 3.47514 13.4953 3.583 13.4843 3.69038C13.4734 3.79776 13.4258 3.89808 13.3494 3.97439L7.60381 9.71939C7.54503 9.77813 7.47169 9.82019 7.39131 9.84126L4.99818 10.4663C4.91907 10.4869 4.83595 10.4865 4.75705 10.4651C4.67816 10.4436 4.60623 10.402 4.54843 10.3441C4.49062 10.2863 4.44893 10.2144 4.42751 10.1355C4.40609 10.0566 4.40567 9.9735 4.42631 9.89439L5.05131 7.50189C5.06955 7.43007 5.10397 7.36337 5.15193 7.30689L10.9188 1.54376C11.0067 1.45598 11.1258 1.40668 11.2501 1.40668C11.3743 1.40668 11.4934 1.45598 11.5813 1.54376L13.3494 3.31126C13.3719 3.33377 13.392 3.35848 13.4094 3.38501ZM12.3551 3.64251L11.2501 2.53814L5.92631 7.86189L5.53568 9.35751L7.03131 8.96689L12.3551 3.64251Z" fill="#121212"/>
<path d="M12.2755 10.725C12.4463 9.26496 12.5009 7.79366 12.4386 6.32499C12.4372 6.29039 12.443 6.25588 12.4556 6.22362C12.4682 6.19136 12.4873 6.16204 12.5117 6.13749L13.1267 5.52249C13.1435 5.50559 13.1649 5.4939 13.1881 5.48883C13.2114 5.48376 13.2357 5.48552 13.258 5.4939C13.2803 5.50229 13.2997 5.51694 13.3139 5.53609C13.3281 5.55524 13.3365 5.57808 13.338 5.60187C13.4537 7.34639 13.4098 9.09784 13.2067 10.8344C13.0592 12.0981 12.0442 13.0887 10.7861 13.2294C8.60194 13.4712 6.39776 13.4712 4.2136 13.2294C2.9561 13.0887 1.94048 12.0981 1.79298 10.8344C1.53385 8.619 1.53385 6.38098 1.79298 4.16562C1.94048 2.90187 2.95548 1.91124 4.2136 1.77062C5.87133 1.58679 7.54156 1.54226 9.20673 1.63749C9.23056 1.6392 9.2534 1.64771 9.27254 1.662C9.29169 1.67629 9.30634 1.69577 9.31476 1.71813C9.32318 1.74049 9.32501 1.76479 9.32004 1.78816C9.31507 1.81153 9.30351 1.83299 9.28673 1.84999L8.6661 2.46999C8.64179 2.49421 8.61278 2.51319 8.58086 2.52577C8.54893 2.53834 8.51477 2.54425 8.48048 2.54311C7.09095 2.49588 5.69982 2.54914 4.31798 2.70249C3.91419 2.74718 3.53726 2.92669 3.24807 3.21202C2.95889 3.49735 2.77434 3.87184 2.72423 4.27499C2.47363 6.41769 2.47363 8.58229 2.72423 10.725C2.77434 11.1281 2.95889 11.5026 3.24807 11.788C3.53726 12.0733 3.91419 12.2528 4.31798 12.2975C6.41485 12.5319 8.58485 12.5319 10.6824 12.2975C11.0861 12.2528 11.4631 12.0733 11.7523 11.788C12.0414 11.5026 12.2254 11.1281 12.2755 10.725Z" fill="#121212"/>
</svg>
