<svg width="132" height="56" viewBox="0 0 132 56" fill="none" xmlns="http://www.w3.org/2000/svg">
<ellipse cx="122.422" cy="13.7652" rx="9.57759" ry="9.5812" fill="#5C1EFF"/>
<path d="M8.987 43.227H18.877V48H2.967V17.986H8.987V43.227ZM36.6353 48.301C33.826 48.301 31.246 47.6417 28.8953 46.323C26.5447 45.0043 24.6813 43.184 23.3053 40.862C21.9293 38.5113 21.2413 35.8597 21.2413 32.907C21.2413 29.983 21.9293 27.36 23.3053 25.038C24.6813 22.6873 26.5447 20.8527 28.8953 19.534C31.246 18.2153 33.826 17.556 36.6353 17.556C39.4733 17.556 42.0533 18.2153 44.3753 19.534C46.726 20.8527 48.575 22.6873 49.9223 25.038C51.2983 27.36 51.9863 29.983 51.9863 32.907C51.9863 35.8597 51.2983 38.5113 49.9223 40.862C48.575 43.184 46.726 45.0043 44.3753 46.323C42.0247 47.6417 39.4447 48.301 36.6353 48.301ZM36.6353 42.926C38.4413 42.926 40.0323 42.5247 41.4083 41.722C42.7843 40.8907 43.8593 39.7153 44.6333 38.196C45.4073 36.6767 45.7943 34.9137 45.7943 32.907C45.7943 30.9003 45.4073 29.1517 44.6333 27.661C43.8593 26.1417 42.7843 24.9807 41.4083 24.178C40.0323 23.3753 38.4413 22.974 36.6353 22.974C34.8293 22.974 33.224 23.3753 31.8193 24.178C30.4433 24.9807 29.3683 26.1417 28.5943 27.661C27.8203 29.1517 27.4333 30.9003 27.4333 32.907C27.4333 34.9137 27.8203 36.6767 28.5943 38.196C29.3683 39.7153 30.4433 40.8907 31.8193 41.722C33.224 42.5247 34.8293 42.926 36.6353 42.926ZM77.363 27.016C76.675 25.7547 75.729 24.7943 74.525 24.135C73.321 23.4757 71.9164 23.146 70.311 23.146C68.5337 23.146 66.957 23.5473 65.581 24.35C64.205 25.1527 63.13 26.2993 62.356 27.79C61.582 29.2807 61.195 31.0007 61.195 32.95C61.195 34.9567 61.582 36.7053 62.356 38.196C63.1587 39.6867 64.2624 40.8333 65.667 41.636C67.0717 42.4387 68.7057 42.84 70.569 42.84C72.8624 42.84 74.74 42.238 76.202 41.034C77.664 39.8013 78.6244 38.0957 79.083 35.917H68.763V31.316H85.017V36.562C84.6157 38.6547 83.7557 40.5897 82.437 42.367C81.1184 44.1443 79.4127 45.5777 77.32 46.667C75.256 47.7277 72.934 48.258 70.354 48.258C67.4587 48.258 64.8357 47.613 62.485 46.323C60.163 45.0043 58.3284 43.184 56.981 40.862C55.6624 38.54 55.003 35.9027 55.003 32.95C55.003 29.9973 55.6624 27.36 56.981 25.038C58.3284 22.6873 60.163 20.867 62.485 19.577C64.8357 18.2583 67.4444 17.599 70.311 17.599C73.6937 17.599 76.632 18.4303 79.126 20.093C81.62 21.727 83.34 24.0347 84.286 27.016H77.363ZM103.403 48.301C100.594 48.301 98.0136 47.6417 95.6629 46.323C93.3122 45.0043 91.4489 43.184 90.0729 40.862C88.6969 38.5113 88.0089 35.8597 88.0089 32.907C88.0089 29.983 88.6969 27.36 90.0729 25.038C91.4489 22.6873 93.3122 20.8527 95.6629 19.534C98.0136 18.2153 100.594 17.556 103.403 17.556C106.241 17.556 108.821 18.2153 111.143 19.534C113.494 20.8527 115.343 22.6873 116.69 25.038C118.066 27.36 118.754 29.983 118.754 32.907C118.754 35.8597 118.066 38.5113 116.69 40.862C115.343 43.184 113.494 45.0043 111.143 46.323C108.792 47.6417 106.212 48.301 103.403 48.301ZM103.403 42.926C105.209 42.926 106.8 42.5247 108.176 41.722C109.552 40.8907 110.627 39.7153 111.401 38.196C112.175 36.6767 112.562 34.9137 112.562 32.907C112.562 30.9003 112.175 29.1517 111.401 27.661C110.627 26.1417 109.552 24.9807 108.176 24.178C106.8 23.3753 105.209 22.974 103.403 22.974C101.597 22.974 99.9916 23.3753 98.5869 24.178C97.2109 24.9807 96.1359 26.1417 95.3619 27.661C94.5879 29.1517 94.2009 30.9003 94.2009 32.907C94.2009 34.9137 94.5879 36.6767 95.3619 38.196C96.1359 39.7153 97.2109 40.8907 98.5869 41.722C99.9916 42.5247 101.597 42.926 103.403 42.926Z" fill="black"/>
</svg>
