<svg width="32" height="31" viewBox="0 0 32 31" fill="none" xmlns="http://www.w3.org/2000/svg">
<path d="M16.4393 19.3265C18.574 19.3265 20.3046 17.5959 20.3046 15.4612C20.3046 13.3265 18.574 11.5959 16.4393 11.5959C14.3045 11.5959 12.574 13.3265 12.574 15.4612C12.574 17.5959 14.3045 19.3265 16.4393 19.3265Z" stroke="#121212" stroke-opacity="0.6" stroke-width="1.5" stroke-miterlimit="10" stroke-linecap="round" stroke-linejoin="round"/>
<path d="M3.55493 16.595V14.3274C3.55493 12.9874 4.6501 11.8794 6.00296 11.8794C8.33502 11.8794 9.28846 10.2302 8.11599 8.20732C7.446 7.04773 7.84541 5.54026 9.01789 4.87028L11.2469 3.59473C12.2647 2.98917 13.5789 3.34993 14.1845 4.36779L14.3262 4.61259C15.4858 6.63543 17.3927 6.63543 18.5652 4.61259L18.7069 4.36779C19.3125 3.34993 20.6267 2.98917 21.6445 3.59473L23.8735 4.87028C25.046 5.54026 25.4454 7.04773 24.7754 8.20732C23.603 10.2302 24.5564 11.8794 26.8885 11.8794C28.2284 11.8794 29.3365 12.9745 29.3365 14.3274V16.595C29.3365 17.935 28.2413 19.043 26.8885 19.043C24.5564 19.043 23.603 20.6922 24.7754 22.7151C25.4454 23.8876 25.046 25.3821 23.8735 26.0521L21.6445 27.3277C20.6267 27.9332 19.3125 27.5725 18.7069 26.5546L18.5652 26.3098C17.4056 24.287 15.4987 24.287 14.3262 26.3098L14.1845 26.5546C13.5789 27.5725 12.2647 27.9332 11.2469 27.3277L9.01789 26.0521C7.84541 25.3821 7.446 23.8747 8.11599 22.7151C9.28846 20.6922 8.33502 19.043 6.00296 19.043C4.6501 19.043 3.55493 17.935 3.55493 16.595Z" stroke="#121212" stroke-opacity="0.6" stroke-width="1.5" stroke-miterlimit="10" stroke-linecap="round" stroke-linejoin="round"/>
</svg>
